Tere Mere Sapne (1996)
 
http://www.shotpix.com/images/66976302321502974319.jpg



INFO

[CODE]Format : AVI
Format/Info : Audio Video Interleave
File size : 1.45 GiB
Duration : 2h 27mn
Overall bit rate : 1 403 Kbps
Writing application : VirtualDubMod 1.5.10.2 (build 2542/release)
Writing library : VirtualDubMod build 2542/release

Video
ID : 0
Format : MPEG-4 Visual
Format profile : Advanced Simple@L5
Format settings, BVOP : 2
Format settings, QPel : Yes
Format settings, GMC : No warppoints
Format settings, Matrix : Custom
Codec ID : XVID
Codec ID/Hint : XviD
Duration : 2h 27mn
Bit rate : 1 202 Kbps
Width : 720 pixels
Height : 368 pixels
Display aspect ratio : 1.957
Frame rate : 23.976 fps
Color space : YUV
Chroma subsampling : 4:2:0
Bit depth : 8 bits
Scan type : Progressive
Compression mode : Lossy
Bits/(Pixel*Frame) : 0.189
Stream size : 1.24 GiB (86%)
Writing library : XviD 1.2.1 (UTC 2008-12-04)

Audio
ID : 1
Format : AC-3
Format/Info : Audio Coding 3
Mode extension : CM (complete main)
Codec ID : 2000
Duration : 2h 27mn
Bit rate mode : Constant
Bit rate : 192 Kbps
Channel(s) : 6 channels
Channel positions : Front: L C R, Side: L R, LFE
Sampling rate : 48.0 KHz
Bit depth : 16 bits
Compression mode : Lossy
Delay relative to video : 2s 0ms
Stream size : 203 MiB (14%)
Alignment : Split accross interleaves
Interleave, duration : 42 ms (1.00 video frame)
Interleave, preload duration : 500 ms[/CODE]



SCREEN SHOTS
 
http://www.shotpix.com/images/76447572108173785354.png
 
http://www.shotpix.com/images/36840171299779864120.png
 
http://www.shotpix.com/images/12760531874537932557.png
 
http://www.shotpix.com/images/66454594679410419893.png
 
http://www.shotpix.com/images/52725614283138321174.png
 
http://www.shotpix.com/images/36854650537812500661.png
 
http://www.shotpix.com/images/83718180510995490468.png
 
http://www.shotpix.com/images/55326012490360967364.png
 
http://www.shotpix.com/images/84977093931203912493.png
 
http://www.shotpix.com/images/31282844333175031771.png